{
    "asset": {
        "copyright": "(C)2019 ",
        "generator": "maya2glTF V0.9.11 cmake 5c271ea",
        "version": "2.0"
    },
    "scenes": [
        {
            "nodes": [
                0
            ]
        }
    ],
    "scene": 0,
    "nodes": [
        {
            "children": [
                1
            ],
            "translation": [
                0.0,
                4.910518169403076,
                0.1637004911899567
            ],
            "name": "chair"
        },
        {
            "mesh": 0,
            "translation": [
                -0.0,
                -4.910518169403076,
                -0.1637004911899567
            ],
            "name": "chair:PIV"
        }
    ],
    "meshes": [
        {
            "primitives": [
                {
                    "attributes": {
                        "NORMAL": 1,
                        "POSITION": 2,
                        "TANGENT": 3,
                        "TEXCOORD_0": 4
                    },
                    "indices": 0,
                    "mode": 4,
                    "material": 0
                }
            ],
            "name": "chairShape"
        }
    ],
    "accessors": [
        {
            "bufferView": 0,
            "byteOffset": 0,
            "componentType": 5123,
            "count": 6960,
            "max": [
                1930
            ],
            "min": [
                0
            ],
            "type": "SCALAR"
        },
        {
            "bufferView": 1,
            "byteOffset": 0,
            "componentType": 5126,
            "count": 1931,
            "max": [
                1.0,
                1.0,
                1.0
            ],
            "min": [
                -1.0,
                -1.0,
                -1.0
            ],
            "type": "VEC3"
        },
        {
            "bufferView": 1,
            "byteOffset": 23172,
            "componentType": 5126,
            "count": 1931,
            "max": [
                2.7100794315338136,
                9.808446884155274,
                2.827400922775269
            ],
            "min": [
                -2.7100794315338136,
                0.012590027414262297,
                -2.5
            ],
            "type": "VEC3"
        },
        {
            "bufferView": 2,
            "byteOffset": 0,
            "componentType": 5126,
            "count": 1931,
            "max": [
                1.0,
                1.0,
                1.0,
                1.0
            ],
            "min": [
                -0.894435465335846,
                -1.0,
                -1.0,
                1.0
            ],
            "type": "VEC4"
        },
        {
            "bufferView": 3,
            "byteOffset": 0,
            "componentType": 5126,
            "count": 1931,
            "max": [
                0.9980080127716065,
                0.998008906841278
            ],
            "min": [
                0.00199203216470778,
                0.0024511218070983888
            ],
            "type": "VEC2"
        }
    ],
    "materials": [
        {
            "pbrMetallicRoughness": {
                "baseColorFactor": [
                    0.800000011920929,
                    0.800000011920929,
                    0.800000011920929,
                    1.0
                ],
                "baseColorTexture": {
                    "index": 0
                },
                "metallicFactor": 0.0,
                "roughnessFactor": 1.0
            },
            "name": "chair1"
        }
    ],
    "textures": [
        {
            "sampler": 0,
            "source": 0
        }
    ],
    "images": [
        {
            "uri": "wood.jpg"
        }
    ],
    "samplers": [
        {
            "magFilter": 9729,
            "minFilter": 9987,
            "wrapS": 10497,
            "wrapT": 10497
        }
    ],
    "bufferViews": [
        {
            "buffer": 0,
            "byteOffset": 92688,
            "byteLength": 13920,
            "target": 34963
        },
        {
            "buffer": 0,
            "byteOffset": 30896,
            "byteLength": 46344,
            "byteStride": 12,
            "target": 34962
        },
        {
            "buffer": 0,
            "byteOffset": 0,
            "byteLength": 30896,
            "byteStride": 16,
            "target": 34962
        },
        {
            "buffer": 0,
            "byteOffset": 77240,
            "byteLength": 15448,
            "byteStride": 8,
            "target": 34962
        }
    ],
    "buffers": [
        {
            "byteLength": 106608,
            "uri": "chair0.bin"
        }
    ]
}
