{
    "asset": {
        "copyright": "(C)2019 ",
        "generator": "maya2glTF V0.9.11 cmake 5c271ea",
        "version": "2.0"
    },
    "scenes": [
        {
            "nodes": [
                0
            ]
        }
    ],
    "scene": 0,
    "nodes": [
        {
            "mesh": 0,
            "scale": [
                2.613203763961792,
                1.0,
                1.0
            ],
            "name": "knife1"
        }
    ],
    "meshes": [
        {
            "primitives": [
                {
                    "attributes": {
                        "NORMAL": 1,
                        "POSITION": 2,
                        "TANGENT": 3,
                        "TEXCOORD_0": 4
                    },
                    "indices": 0,
                    "mode": 4,
                    "material": 0
                }
            ],
            "name": "knifeShape1"
        }
    ],
    "accessors": [
        {
            "bufferView": 0,
            "byteOffset": 0,
            "componentType": 5123,
            "count": 300,
            "max": [
                114
            ],
            "min": [
                0
            ],
            "type": "SCALAR"
        },
        {
            "bufferView": 1,
            "byteOffset": 0,
            "componentType": 5126,
            "count": 115,
            "max": [
                1.0,
                0.9999920129776,
                1.0
            ],
            "min": [
                -1.0,
                -0.9999226927757264,
                -0.9990385174751282
            ],
            "type": "VEC3"
        },
        {
            "bufferView": 1,
            "byteOffset": 1380,
            "componentType": 5126,
            "count": 115,
            "max": [
                1.460614323616028,
                0.3999135494232178,
                -0.006576764862984419
            ],
            "min": [
                -4.582751750946045,
                -0.4109081327915192,
                -2.6114232540130617
            ],
            "type": "VEC3"
        },
        {
            "bufferView": 2,
            "byteOffset": 0,
            "componentType": 5126,
            "count": 115,
            "max": [
                0.999877393245697,
                1.0,
                0.999996781349182,
                1.0
            ],
            "min": [
                -0.5348912477493286,
                -1.0,
                -0.9999842047691344,
                -1.0
            ],
            "type": "VEC4"
        },
        {
            "bufferView": 3,
            "byteOffset": 0,
            "componentType": 5126,
            "count": 115,
            "max": [
                1.0,
                1.0
            ],
            "min": [
                -5.960464477539064e-8,
                0.0
            ],
            "type": "VEC2"
        }
    ],
    "materials": [
        {
            "pbrMetallicRoughness": {
                "baseColorFactor": [
                    0.800000011920929,
                    0.800000011920929,
                    0.800000011920929,
                    1.0
                ],
                "baseColorTexture": {
                    "index": 0
                },
                "metallicFactor": 0.0,
                "roughnessFactor": 1.0
            },
            "name": "knife"
        }
    ],
    "textures": [
        {
            "sampler": 0,
            "source": 0
        }
    ],
    "images": [
        {
            "uri": "knife.jpg"
        }
    ],
    "samplers": [
        {
            "magFilter": 9729,
            "minFilter": 9987,
            "wrapS": 10497,
            "wrapT": 10497
        }
    ],
    "bufferViews": [
        {
            "buffer": 0,
            "byteOffset": 5520,
            "byteLength": 600,
            "target": 34963
        },
        {
            "buffer": 0,
            "byteOffset": 1840,
            "byteLength": 2760,
            "byteStride": 12,
            "target": 34962
        },
        {
            "buffer": 0,
            "byteOffset": 0,
            "byteLength": 1840,
            "byteStride": 16,
            "target": 34962
        },
        {
            "buffer": 0,
            "byteOffset": 4600,
            "byteLength": 920,
            "byteStride": 8,
            "target": 34962
        }
    ],
    "buffers": [
        {
            "byteLength": 6120,
            "uri": "knife0.bin"
        }
    ]
}
