{
    "asset": {
        "copyright": "(C)2019 ",
        "generator": "maya2glTF V0.9.11 cmake 5c271ea",
        "version": "2.0"
    },
    "scenes": [
        {
            "nodes": [
                2,
                0
            ]
        }
    ],
    "scene": 0,
    "nodes": [
        {
            "children": [
                1
            ],
            "translation": [
                -0.004170417785644531,
                16.375,
                0.004170417785644531
            ],
            "name": "table"
        },
        {
            "mesh": 0,
            "translation": [
                0.004170417785644531,
                -16.375,
                -0.004170417785644531
            ],
            "name": "table:PIV"
        },
        {
            "children": [
                3
            ],
            "translation": [
                -0.2891502380371094,
                26.168014526367189,
                0.2749137878417969
            ],
            "name": "cloth1"
        },
        {
            "mesh": 1,
            "translation": [
                0.2891502380371094,
                -26.168014526367189,
                -0.2749137878417969
            ],
            "name": "cloth1:PIV"
        }
    ],
    "meshes": [
        {
            "primitives": [
                {
                    "attributes": {
                        "NORMAL": 1,
                        "POSITION": 2,
                        "TANGENT": 3,
                        "TEXCOORD_0": 4
                    },
                    "indices": 0,
                    "mode": 4,
                    "material": 0
                }
            ],
            "name": "tableShape"
        },
        {
            "primitives": [
                {
                    "attributes": {
                        "NORMAL": 6,
                        "POSITION": 7,
                        "TANGENT": 8,
                        "TEXCOORD_0": 9
                    },
                    "indices": 5,
                    "mode": 4,
                    "material": 1
                }
            ],
            "name": "outputCloth1"
        }
    ],
    "accessors": [
        {
            "bufferView": 0,
            "byteOffset": 0,
            "componentType": 5123,
            "count": 972,
            "max": [
                438
            ],
            "min": [
                0
            ],
            "type": "SCALAR"
        },
        {
            "bufferView": 1,
            "byteOffset": 0,
            "componentType": 5126,
            "count": 439,
            "max": [
                1.0,
                1.0,
                1.0
            ],
            "min": [
                -1.0,
                -1.0,
                -1.0
            ],
            "type": "VEC3"
        },
        {
            "bufferView": 1,
            "byteOffset": 5268,
            "componentType": 5126,
            "count": 439,
            "max": [
                25.0,
                32.75,
                25.00834083557129
            ],
            "min": [
                -25.00834083557129,
                0.0,
                -25.0
            ],
            "type": "VEC3"
        },
        {
            "bufferView": 2,
            "byteOffset": 0,
            "componentType": 5126,
            "count": 439,
            "max": [
                1.0,
                0.9999993443489076,
                1.0,
                1.0
            ],
            "min": [
                -1.0,
                -0.9999993443489076,
                -1.0,
                -1.0
            ],
            "type": "VEC4"
        },
        {
            "bufferView": 3,
            "byteOffset": 0,
            "componentType": 5126,
            "count": 439,
            "max": [
                0.8750000596046448,
                1.0
            ],
            "min": [
                0.125,
                0.0
            ],
            "type": "VEC2"
        },
        {
            "bufferView": 0,
            "byteOffset": 1944,
            "componentType": 5123,
            "count": 15000,
            "max": [
                2600
            ],
            "min": [
                0
            ],
            "type": "SCALAR"
        },
        {
            "bufferView": 1,
            "byteOffset": 10536,
            "componentType": 5126,
            "count": 2601,
            "max": [
                0.9999845027923584,
                1.0,
                0.999950647354126
            ],
            "min": [
                -0.9999821186065674,
                -0.03006117418408394,
                -0.999937117099762
            ],
            "type": "VEC3"
        },
        {
            "bufferView": 1,
            "byteOffset": 41748,
            "componentType": 5126,
            "count": 2601,
            "max": [
                34.37123489379883,
                33.86542892456055,
                34.87718963623047
            ],
            "min": [
                -34.94953536987305,
                18.470598220825197,
                -34.32736206054688
            ],
            "type": "VEC3"
        },
        {
            "bufferView": 2,
            "byteOffset": 7024,
            "componentType": 5126,
            "count": 2601,
            "max": [
                1.0,
                1.0,
                0.7808930277824402,
                1.0
            ],
            "min": [
                -0.029825599864125253,
                -0.9999991655349731,
                -0.7303915619850159,
                1.0
            ],
            "type": "VEC4"
        },
        {
            "bufferView": 3,
            "byteOffset": 3512,
            "componentType": 5126,
            "count": 2601,
            "max": [
                1.0,
                1.0
            ],
            "min": [
                0.0,
                0.0
            ],
            "type": "VEC2"
        }
    ],
    "materials": [
        {
            "pbrMetallicRoughness": {
                "baseColorFactor": [
                    0.800000011920929,
                    0.800000011920929,
                    0.800000011920929,
                    1.0
                ],
                "baseColorTexture": {
                    "index": 0
                },
                "metallicFactor": 0.0,
                "roughnessFactor": 1.0
            },
            "normalTexture": {
                "scale": 0.5,
                "index": 0
            },
            "name": "wood"
        },
        {
            "pbrMetallicRoughness": {
                "baseColorFactor": [
                    0.800000011920929,
                    0.800000011920929,
                    0.800000011920929,
                    1.0
                ],
                "baseColorTexture": {
                    "index": 1
                },
                "metallicFactor": 0.0,
                "roughnessFactor": 1.0
            },
            "name": "ARcloth"
        }
    ],
    "textures": [
        {
            "sampler": 0,
            "source": 0
        },
        {
            "sampler": 0,
            "source": 1
        }
    ],
    "images": [
        {
            "uri": "wood.jpg"
        },
        {
            "uri": "arTile-01.png"
        }
    ],
    "samplers": [
        {
            "magFilter": 9729,
            "minFilter": 9987,
            "wrapS": 10497,
            "wrapT": 10497
        }
    ],
    "bufferViews": [
        {
            "buffer": 0,
            "byteOffset": 145920,
            "byteLength": 31944,
            "target": 34963
        },
        {
            "buffer": 0,
            "byteOffset": 48640,
            "byteLength": 72960,
            "byteStride": 12,
            "target": 34962
        },
        {
            "buffer": 0,
            "byteOffset": 0,
            "byteLength": 48640,
            "byteStride": 16,
            "target": 34962
        },
        {
            "buffer": 0,
            "byteOffset": 121600,
            "byteLength": 24320,
            "byteStride": 8,
            "target": 34962
        }
    ],
    "buffers": [
        {
            "byteLength": 177864,
            "uri": "TablewithCLOTH0.bin"
        }
    ]
}
